<svg width="375" height="106" viewBox="0 0 375 106" fill="none" xmlns="http://www.w3.org/2000/svg">
<path opacity="0.2" d="M375.535 72.715C375.535 72.715 271.682 22.354 157.975 41.986C44.268 61.618 -0.399994 0 -0.399994 0V402.768H375.535V72.715Z" fill="url(#paint0_linear_1_144)"/>
<path opacity="0.4" d="M375.535 32.715C375.535 32.715 315.463 19.874 217.975 61.986C120.487 104.098 -0.399994 40 -0.399994 40V402.768H375.535V32.715Z" fill="url(#paint1_linear_1_144)"/>
<path opacity="0.7" d="M-75 51.661C-75 51.661 -9.06299 4.977 123.506 42.853C256.075 80.729 375.506 67.253 375.506 67.253L376.506 403.307H0.535004L-75 51.661Z" fill="url(#paint2_linear_1_144)"/>
<path opacity="0.7" d="M0.535004 45.486C0.535004 45.486 58.792 2.37 191.02 40.307C323.248 78.244 375.535 76.68 375.535 76.68L374.535 403.307H-0.464996L0.535004 45.486Z" fill="url(#paint3_linear_1_144)"/>
<defs>
<linearGradient id="paint0_linear_1_144" x1="187.568" y1="0" x2="187.568" y2="402.768" gradientUnits="userSpaceOnUse">
<stop stop-color="#6C18A4"/>
<stop offset="1" stop-color="#3827B4"/>
</linearGradient>
<linearGradient id="paint1_linear_1_144" x1="187.568" y1="30.8722" x2="187.568" y2="402.768" gradientUnits="userSpaceOnUse">
<stop stop-color="#6C18A4"/>
<stop offset="1" stop-color="#6C18A4"/>
</linearGradient>
<linearGradient id="paint2_linear_1_144" x1="150.753" y1="28.0342" x2="150.753" y2="403.307" gradientUnits="userSpaceOnUse">
<stop stop-color="#6C18A4"/>
<stop offset="1" stop-color="#6C18A4"/>
</linearGradient>
<linearGradient id="paint3_linear_1_144" x1="-0.464996" y1="80.7266" x2="375.535" y2="77.7393" gradientUnits="userSpaceOnUse">
<stop stop-color="#3827B4"/>
<stop offset="1" stop-color="#6C18A4"/>
</linearGradient>
</defs>
</svg>
