<svg width="69" height="27" viewBox="0 0 69 27" fill="none" xmlns="http://www.w3.org/2000/svg">
<path d="M40.3832 19L39.3969 15.9824H34.0746L33.0199 19H30.8324L36.6429 4.49805H37.1605L42.5511 19H40.3832ZM36.809 8.24805L34.5922 14.5469H38.8402L36.809 8.24805ZM49.2699 6.45117V19H47.3168V6.45117H42.766V4.69336H54.0258V6.45117H49.2699ZM66.4476 19L64.7484 9.81055L61.6234 19.1953H61.1351L57.9222 9.81055L56.2621 19H54.4066L57.0824 4.69336H57.9711L61.3793 15.1328L64.5238 4.69336H65.4027L68.3031 19H66.4476Z" fill="white"/>
<path opacity="0.9" fill-rule="evenodd" clip-rule="evenodd" d="M20.8153 9.79299C18.5905 6.74809 16.0842 3.91929 13.3293 1.34399C11.0282 3.4542 8.91248 5.75799 7.00533 8.22999C1.24733 15.592 -1.40567 23.271 0.739335 25.831C2.90333 28.413 9.33933 25.061 15.4723 17.903C17.4473 15.615 20.9473 9.99699 20.8153 9.79299Z" fill="white"/>
<path opacity="0.9" fill-rule="evenodd" clip-rule="evenodd" d="M19.6313 8.20802C17.7306 5.73675 15.6216 3.43298 13.3273 1.32202C10.5608 3.88644 8.05272 6.71635 5.83933 9.77102C5.68833 9.97102 9.18833 15.593 11.1643 17.903C17.2793 25.061 23.7143 28.413 25.8783 25.831C28.0413 23.272 25.3693 15.593 19.6313 8.20802Z" fill="white"/>
</svg>
